<svg width="78" height="78" viewBox="0 0 78 78" fill="none" xmlns="http://www.w3.org/2000/svg">
<path fill-rule="evenodd" clip-rule="evenodd" d="M0.5 39C0.5 17.737 17.737 0.5 39 0.5C60.263 0.5 77.5 17.737 77.5 39C77.5 60.263 60.263 77.5 39 77.5C17.737 77.5 0.5 60.263 0.5 39Z" fill="#474680"/>
<path fill-rule="evenodd" clip-rule="evenodd" d="M57.5872 25.1503C58.954 26.5171 58.954 28.7332 57.5872 30.1L35.8623 52.85C34.4955 54.2168 32.2794 54.2168 30.9126 52.85L20.4126 42.35C19.0457 40.9832 19.0457 38.7671 20.4126 37.4003C21.7794 36.0334 23.9955 36.0334 25.3623 37.4003L33.3875 45.4254L52.6375 25.1503C54.0043 23.7834 56.2204 23.7834 57.5872 25.1503Z" fill="white"/>
</svg>
