<svg width="8" height="5" viewBox="0 0 8 5" fill="none" xmlns="http://www.w3.org/2000/svg">
<path d="M0.203713 1.28309L3.42121 4.46309C3.49094 4.53338 3.57389 4.58918 3.66528 4.62726C3.75667 4.66533 3.8547 4.68494 3.95371 4.68494C4.05272 4.68494 4.15075 4.66533 4.24215 4.62726C4.33354 4.58918 4.41649 4.53338 4.48621 4.46309L7.66621 1.28309C7.73651 1.21336 7.79231 1.13041 7.83038 1.03902C7.86846 0.947624 7.88806 0.849595 7.88806 0.750586C7.88806 0.651577 7.86846 0.553548 7.83038 0.462153C7.79231 0.370759 7.73651 0.287808 7.66621 0.218086C7.52569 0.0783975 7.3356 -8.67126e-06 7.13746 -8.67126e-06C6.93932 -8.67126e-06 6.74923 0.0783975 6.60871 0.218086L3.95371 2.87309L1.29871 0.218086C1.15902 0.0795276 0.970468 0.00141417 0.773713 0.000585707C0.675008 1.50364e-05 0.577161 0.0189335 0.485783 0.0562569C0.394405 0.0935804 0.311292 0.148575 0.241212 0.218086C0.168406 0.285299 0.109641 0.366274 0.0683107 0.45633C0.0269807 0.546387 0.00390551 0.643741 0.000418663 0.742768C-0.00306818 0.841794 0.0131025 0.94053 0.047996 1.03327C0.0828896 1.12601 0.135814 1.21092 0.203713 1.28309Z" fill="#B5B5BE"/>
</svg>
