<svg width="8" height="5" viewBox="0 0 8 5" fill="none" xmlns="http://www.w3.org/2000/svg">
<path d="M7.68435 3.40185L4.46685 0.221849C4.39713 0.151552 4.31418 0.0957569 4.22278 0.0576804C4.13139 0.0196039 4.03336 0 3.93435 0C3.83534 0 3.73731 0.0196039 3.64592 0.0576804C3.55452 0.0957569 3.47157 0.151552 3.40185 0.221849L0.221849 3.40185C0.151552 3.47157 0.0957565 3.55452 0.05768 3.64592C0.0196035 3.73731 0 3.83534 0 3.93435C0 4.03336 0.0196035 4.13139 0.05768 4.22278C0.0957565 4.31418 0.151552 4.39713 0.221849 4.46685C0.362371 4.60654 0.552459 4.68495 0.750599 4.68495C0.948738 4.68495 1.13883 4.60654 1.27935 4.46685L3.93435 1.81185L6.58935 4.46685C6.72904 4.60541 6.91759 4.68352 7.11435 4.68435C7.21305 4.68492 7.3109 4.666 7.40228 4.62868C7.49366 4.59136 7.57677 4.53636 7.64685 4.46685C7.71966 4.39964 7.77842 4.31866 7.81975 4.22861C7.86108 4.13855 7.88416 4.0412 7.88764 3.94217C7.89113 3.84314 7.87496 3.74441 7.84007 3.65167C7.80517 3.55893 7.75225 3.47402 7.68435 3.40185Z" fill="#B5B5BE"/>
</svg>
