<svg width="16" height="16" viewBox="0 0 16 16" fill="none" xmlns="http://www.w3.org/2000/svg">
<g clip-path="url(#clip0_150_5900)">
<path d="M5.21114 4.46246C5.31834 4.68166 5.43354 4.87366 5.47834 5.10246C5.60314 5.73766 5.88954 6.30886 6.31834 6.78086C6.59034 7.08006 6.57434 7.38726 6.48154 7.69606C6.40154 7.96326 6.42554 8.15846 6.60314 8.36326C6.83994 8.63846 7.07674 8.91206 7.40474 9.08646C7.78394 9.28966 8.31514 9.25446 8.74394 8.92006C9.09434 8.64646 9.35674 8.29606 9.59994 7.92806C9.64314 7.86406 9.62554 7.80806 9.61274 7.74726C9.59674 7.67206 9.58234 7.59686 9.56634 7.52326C9.50074 7.22086 9.59034 6.98086 9.79674 6.74406C10.2095 6.26886 10.4847 5.71526 10.6127 5.09606C10.6591 4.87206 10.7775 4.68646 10.9023 4.48806C10.8991 4.56486 10.9023 4.64326 10.8911 4.72006C10.7727 5.51046 10.8623 6.29126 11.0031 7.06566C11.0623 7.38406 11.1663 7.69766 11.2943 8.00006C11.3695 8.17606 11.5487 8.17286 11.6863 8.22886C12.1839 8.42726 12.6671 8.65126 13.1247 8.93286C13.5391 9.18726 13.7487 9.57446 13.8959 10.0113C14.1263 10.6929 14.3279 11.3825 14.4655 12.0913C14.6159 12.8689 14.6751 13.6497 14.6303 14.4401C14.6095 14.7857 14.3919 14.9921 14.1023 15.1009C13.4159 15.3585 12.7087 15.5585 11.9887 15.7057C11.5647 15.7921 11.1391 15.8577 10.7167 15.9393C10.3967 16.0017 10.0831 15.9937 9.76474 15.9953C8.92634 16.0017 8.08634 15.9841 7.24794 16.0017C6.44154 16.0177 5.64954 15.9329 4.85594 15.7841C4.03834 15.6321 3.23194 15.4497 2.44474 15.1889C2.22234 15.1153 2.00314 15.0321 1.78714 14.9409C1.45274 14.8001 1.39994 14.4993 1.37594 14.1985C1.33914 13.7297 1.42394 13.2657 1.47354 12.8033C1.54074 12.1809 1.64794 11.5633 1.80154 10.9553C1.94554 10.3841 2.11994 9.82086 2.43354 9.32006C2.68474 8.91846 3.09114 8.69766 3.52794 8.53766C3.89114 8.40646 4.25594 8.28006 4.61914 8.14726C4.70234 8.11686 4.76154 8.06406 4.79994 7.96806C5.01754 7.40966 5.14234 6.83526 5.19674 6.23686C5.24474 5.71846 5.26714 5.20486 5.19034 4.68806C5.18234 4.62246 5.16794 4.55206 5.21114 4.46246ZM7.56154 13.7137C7.56154 13.8609 7.56794 13.9825 7.55994 14.1041C7.55194 14.2257 7.59034 14.2785 7.71994 14.2721C7.91194 14.2641 8.10394 14.2641 8.29594 14.2721C8.42714 14.2785 8.46074 14.2209 8.45754 14.1025C8.45114 13.8721 8.46234 13.6417 8.45274 13.4113C8.44794 13.2737 8.48794 13.2145 8.63674 13.2209C8.86714 13.2305 9.09754 13.2177 9.32794 13.2257C9.45434 13.2305 9.50074 13.1793 9.49914 13.0577C9.49594 12.8657 9.49114 12.6737 9.50074 12.4833C9.50874 12.3473 9.44314 12.3217 9.32794 12.3233C9.11034 12.3281 8.89274 12.3249 8.67514 12.3281C8.51674 12.3313 8.44154 12.2705 8.45114 12.0993C8.46394 11.8769 8.45274 11.6513 8.45754 11.4273C8.45914 11.3217 8.42394 11.2785 8.31194 11.2817C8.11354 11.2881 7.91514 11.2865 7.71674 11.2817C7.60474 11.2801 7.55514 11.3169 7.55834 11.4369C7.56474 11.6673 7.55194 11.8977 7.56314 12.1281C7.56954 12.2753 7.50234 12.3217 7.37114 12.3217C7.20474 12.3217 7.03834 12.3233 6.87194 12.3249C6.51514 12.3297 6.51514 12.3313 6.51674 12.6945C6.51834 13.2241 6.51834 13.2209 7.04474 13.2257C7.20954 13.2273 7.41914 13.1537 7.52474 13.2609C7.63354 13.3649 7.54394 13.5761 7.56154 13.7137ZM5.88474 3.73606C5.66714 3.73606 5.44954 3.73126 5.23194 3.73766C5.08634 3.74246 5.02714 3.68806 5.02234 3.53766C5.00954 3.16646 4.98394 2.79206 5.03514 2.42566C5.15834 1.55366 5.61914 0.577661 6.76794 0.227261C7.28474 0.0688614 7.80474 -0.0495387 8.33754 0.0192614C9.33914 0.147261 10.2207 0.520061 10.7103 1.47526C11.0255 2.08806 11.0239 2.76806 10.9967 3.44166C10.9951 3.50246 11.0047 3.56486 10.8895 3.54246C10.7999 3.52486 10.7855 3.64166 10.7711 3.70886C10.7487 3.81446 10.7183 3.83046 10.6175 3.77766C10.1807 3.54886 9.89434 3.19206 9.71834 2.74246C9.67034 2.61926 9.64954 2.59686 9.52634 2.68326C8.72794 3.24006 7.83994 3.55206 6.87514 3.68006C6.54554 3.72486 6.21594 3.73926 5.88474 3.73606Z" fill="#474680"/>
</g>
<defs>
<clipPath id="clip0_150_5900">
<rect width="16" height="16" fill="white"/>
</clipPath>
</defs>
</svg>
