<svg width="84" height="84" viewBox="0 0 84 84" fill="none" xmlns="http://www.w3.org/2000/svg">
<path opacity="0.1" d="M23.8135 10.5C35.0673 4.00258 48.9327 4.00258 60.1865 10.5V10.5C71.4404 16.9974 78.3731 29.0052 78.3731 42V42C78.3731 54.9948 71.4404 67.0026 60.1865 73.5V73.5C48.9327 79.9974 35.0673 79.9974 23.8135 73.5V73.5C12.5596 67.0026 5.62693 54.9948 5.62693 42V42C5.62693 29.0052 12.5596 16.9974 23.8135 10.5V10.5Z" fill="#3F3F3F"/>
<path d="M54.8515 27.606L25.7378 35.8176C25.4929 35.8867 25.2749 36.0289 25.1129 36.2252C24.951 36.4215 24.8528 36.6625 24.8315 36.9161C24.8102 37.1697 24.8669 37.4237 24.9938 37.6443C25.1208 37.8648 25.3121 38.0414 25.542 38.1503L38.9187 44.4866C39.1796 44.6102 39.3897 44.8203 39.5133 45.0812L45.8496 58.4579C45.9586 58.6879 46.1351 58.8791 46.3557 59.0061C46.5762 59.1331 46.8302 59.1897 47.0838 59.1684C47.3374 59.1471 47.5785 59.0489 47.7748 58.887C47.9711 58.725 48.1133 58.507 48.1824 58.2621L56.3939 29.1484C56.4542 28.9346 56.4565 28.7085 56.4004 28.4935C56.3443 28.2785 56.2319 28.0823 56.0747 27.9252C55.9176 27.7681 55.7215 27.6557 55.5065 27.5996C55.2915 27.5435 55.0654 27.5457 54.8515 27.606Z" fill="#3F3F3F" stroke="white" stroke-linecap="round" stroke-linejoin="round"/>
<path d="M39.3224 44.6778L46.3935 37.6067" stroke="white" stroke-linecap="round" stroke-linejoin="round"/>
</svg>
