<svg width="16" height="16" viewBox="0 0 16 16" fill="none" xmlns="http://www.w3.org/2000/svg">
<path fill-rule="evenodd" clip-rule="evenodd" d="M13.0014 8.00016C13.0014 8.22683 12.9814 8.44016 12.9547 8.6535L14.3614 9.7535C14.488 9.8535 14.5214 10.0335 14.4414 10.1802L13.108 12.4868C13.048 12.5935 12.9347 12.6535 12.8214 12.6535C12.7814 12.6535 12.7414 12.6468 12.7014 12.6335L11.0414 11.9668C10.6947 12.2268 10.3214 12.4535 9.91469 12.6202L9.66136 14.3868C9.64136 14.5468 9.50136 14.6668 9.33469 14.6668H6.66802C6.50136 14.6668 6.36136 14.5468 6.34136 14.3868L6.08802 12.6202C5.68136 12.4535 5.30802 12.2335 4.96136 11.9668L3.30136 12.6335C3.26802 12.6468 3.22802 12.6535 3.18802 12.6535C3.06802 12.6535 2.95469 12.5935 2.89469 12.4868L1.56136 10.1802C1.48136 10.0335 1.51469 9.8535 1.64136 9.7535L3.04802 8.6535C3.02136 8.44016 3.00136 8.22016 3.00136 8.00016C3.00136 7.78016 3.02136 7.56016 3.04802 7.34683L1.64136 6.24683C1.51469 6.14683 1.47469 5.96683 1.56136 5.82016L2.89469 3.5135C2.95469 3.40683 3.06802 3.34683 3.18136 3.34683C3.22136 3.34683 3.26136 3.3535 3.30136 3.36683L4.96136 4.0335C5.30802 3.7735 5.68136 3.54683 6.08802 3.38016L6.34136 1.6135C6.36136 1.4535 6.50136 1.3335 6.66802 1.3335H9.33469C9.50136 1.3335 9.64136 1.4535 9.66136 1.6135L9.91469 3.38016C10.3214 3.54683 10.6947 3.76683 11.0414 4.0335L12.7014 3.36683C12.7347 3.3535 12.7747 3.34683 12.8147 3.34683C12.9347 3.34683 13.048 3.40683 13.108 3.5135L14.4414 5.82016C14.5214 5.96683 14.488 6.14683 14.3614 6.24683L12.9547 7.34683C12.9814 7.56016 13.0014 7.7735 13.0014 8.00016ZM11.668 8.00016C11.668 7.86016 11.6614 7.72016 11.6347 7.5135L11.5414 6.76016L12.1347 6.2935L12.848 5.72683L12.3814 4.92016L11.5347 5.26016L10.828 5.54683L10.2214 5.08016C9.95469 4.88016 9.68802 4.72683 9.40136 4.60683L8.69469 4.32016L8.58802 3.56683L8.46136 2.66683H7.53469L7.40136 3.56683L7.29469 4.32016L6.58802 4.60683C6.31469 4.72016 6.04136 4.88016 5.75469 5.0935L5.15469 5.54683L4.46136 5.26683L3.61469 4.92683L3.14802 5.7335L3.86802 6.2935L4.46136 6.76016L4.36802 7.5135C4.34802 7.7135 4.33469 7.86683 4.33469 8.00016C4.33469 8.1335 4.34802 8.28683 4.36802 8.4935L4.46136 9.24683L3.86802 9.7135L3.14802 10.2735L3.61469 11.0802L4.46136 10.7402L5.16802 10.4535L5.77469 10.9202C6.04136 11.1202 6.30802 11.2735 6.59469 11.3935L7.30136 11.6802L7.40802 12.4335L7.53469 13.3335H8.46802L8.60136 12.4335L8.70802 11.6802L9.41469 11.3935C9.68802 11.2802 9.96136 11.1202 10.248 10.9068L10.848 10.4535L11.5414 10.7335L12.388 11.0735L12.8547 10.2668L12.1347 9.70683L11.5414 9.24016L11.6347 8.48683C11.6547 8.28683 11.668 8.14016 11.668 8.00016ZM8.00136 5.3335C6.52802 5.3335 5.33469 6.52683 5.33469 8.00016C5.33469 9.4735 6.52802 10.6668 8.00136 10.6668C9.47469 10.6668 10.668 9.4735 10.668 8.00016C10.668 6.52683 9.47469 5.3335 8.00136 5.3335ZM6.66802 8.00016C6.66802 8.7335 7.26802 9.3335 8.00136 9.3335C8.73469 9.3335 9.33469 8.7335 9.33469 8.00016C9.33469 7.26683 8.73469 6.66683 8.00136 6.66683C7.26802 6.66683 6.66802 7.26683 6.66802 8.00016Z" fill="#DBDDE0"/>
</svg>
