<svg width="84" height="84" viewBox="0 0 84 84" fill="none" xmlns="http://www.w3.org/2000/svg">
<path opacity="0.1" d="M23.8135 10.5C35.0673 4.00258 48.9327 4.00258 60.1865 10.5V10.5C71.4404 16.9974 78.3731 29.0052 78.3731 42V42C78.3731 54.9948 71.4404 67.0026 60.1865 73.5V73.5C48.9327 79.9974 35.0673 79.9974 23.8135 73.5V73.5C12.5596 67.0026 5.62693 54.9948 5.62693 42V42C5.62693 29.0052 12.5596 16.9974 23.8135 10.5V10.5Z" fill="#454545"/>
<path d="M57.7563 35.8418L54.6481 30.4669C54.3095 29.8464 53.5785 29.522 52.8121 29.8053L49.3003 31.2163C48.633 30.736 47.9318 30.328 47.2064 30.0008L46.6723 26.275C46.5816 25.5483 45.9513 25 45.206 25H38.9727C38.2275 25 37.5971 25.5482 37.5078 26.2622L36.9723 29.9994C36.2697 30.3181 35.5797 30.7205 34.8827 31.2163L31.361 29.8011C30.6839 29.5405 29.8764 29.8337 29.5391 30.45L26.4253 35.8346C26.0513 36.4693 26.2057 37.2924 26.7865 37.7514L29.7629 40.0775C29.7162 40.5266 29.6935 40.919 29.6935 41.2916C29.6935 41.6642 29.7162 42.0566 29.7615 42.5057L26.7837 44.8334C26.2156 45.2825 26.0598 46.0786 26.4224 46.7416L29.5306 52.1179C29.8692 52.737 30.6016 53.0614 31.368 52.778L34.8799 51.367C35.5471 51.8472 36.2484 52.2552 36.9737 52.5825L37.5078 56.3069C37.5971 57.035 38.2275 57.5833 38.9727 57.5833H43.8545C44.1194 57.5833 44.3603 57.4359 44.4821 57.2022C44.604 56.9684 44.5855 56.6865 44.4354 56.4698C43.3516 54.9171 42.7779 53.0967 42.7779 51.2083C42.7779 50.3271 42.9068 49.4445 43.1618 48.5846C43.2269 48.3636 43.1816 48.1256 43.0385 47.9443C42.8954 47.7644 42.6759 47.668 42.4449 47.6751C42.3684 47.6794 42.2933 47.6893 42.1007 47.7134C38.5774 47.7134 35.7115 44.8475 35.7115 41.3243C35.7115 37.801 38.5774 34.9336 42.1007 34.9336C45.6239 34.9336 48.4898 37.7995 48.4771 41.4404C48.4672 41.5155 48.4572 41.5905 48.453 41.667C48.4416 41.8979 48.5422 42.1189 48.7221 42.2606C48.9035 42.4037 49.1429 42.4463 49.3625 42.3839C50.7409 41.973 52.0995 41.8753 53.638 42.1544C53.8264 42.1884 54.0332 42.1034 54.1919 41.9858C54.3491 41.8682 54.454 41.65 54.4752 41.4545C54.4781 41.429 54.4851 41.3143 54.4851 41.2888C54.4851 40.8482 54.454 40.4331 54.4171 40.0747L57.3936 37.75C57.9618 37.3024 58.1175 36.5061 57.7563 35.8418Z" fill="#454545"/>
<path d="M59.0696 44.8333C58.6786 44.8333 58.3612 45.1507 58.3612 45.5417V47.27C57.2931 45.3901 55.1596 43.4167 51.9862 43.4167C47.6895 43.4167 44.1946 46.9116 44.1946 51.2083C44.1946 55.5051 47.6895 59 51.9863 59C52.3773 59 52.6946 58.6826 52.6946 58.2916C52.6946 57.9006 52.3773 57.5833 51.9863 57.5833C48.4715 57.5833 45.6113 54.723 45.6113 51.2083C45.6113 47.6935 48.4715 44.8333 51.9863 44.8333C55.3268 44.8333 57.1642 47.5929 57.6161 49.0833H54.8196C54.4286 49.0833 54.1113 49.4006 54.1113 49.7916C54.1113 50.1826 54.4286 50.5 54.8196 50.5H59.0696C59.4606 50.5 59.778 50.1826 59.778 49.7916V45.5416C59.7779 45.1506 59.462 44.8333 59.0696 44.8333Z" fill="#454545"/>
</svg>
